<svg aria-hidden="true" style="position: absolute; width: 0; height: 0; overflow: hidden;" version="1.1" xmlns="http://www.w3.org/2000/svg" xmlns:xlink="http://www.w3.org/1999/xlink">
<defs>
<symbol id="icon-salty" viewBox="0 0 32 32">
<title>salty</title>
<path d="M16 0c-8.838 0-16 7.162-16 16s7.162 16 16 16 16-7.162 16-16-7.162-16-16-16zM21.728 26.554l-11.322-0.25c-0.64 0-1.19-0.627-1.011-1.229l3.821-17.261c0.019-0.083 0.019-0.147 0.013-0.198-0.006-0.013-0.013-0.032-0.013-0.045 0 0 0-0.006 0-0.006v0c-0.070-0.179-0.307-0.141-0.416-0.166-0.717-0.173-0.992-1.254-0.243-1.504 0.979-0.64 5.786-0.563 7.053 0 0.87 0.192 1.088 1.888-0.224 1.754-0.16 0-0.237 0.051-0.269 0.128v0c-0.058 0.128 0.013 0.314 0.051 0.403l3.462 17.248c0.051 0.486-0.525 1.126-0.902 1.126z"></path>
<path d="M19.098 7.776v0z"></path>
<path d="M13.216 7.565v0 0 0z"></path>
<path d="M18.995 7.667l-5.658-0.237c-0.064-0.006-0.115 0.051-0.115 0.122 0 0.006 0 0.006 0 0.013l5.882 0.205c-0.013-0.058-0.058-0.102-0.109-0.102z"></path>
<path d="M13.325 7.686l5.664 0.237c0.064 0 0.109-0.058 0.109-0.122 0-0.006 0-0.019 0-0.026l-5.882-0.211c0 0 0 0.006 0 0.006 0.006 0.013 0.006 0.032 0.013 0.045 0.019 0.045 0.051 0.070 0.096 0.070z"></path>
</symbol>
<symbol id="icon-sweet" viewBox="0 0 32 32">
<title>sweet</title>
<path d="M16 0c-8.838 0-16 7.162-16 16s7.162 16 16 16 16-7.162 16-16-7.162-16-16-16zM16.314 16.096v13.402h-0.627v-13.402c-3.526-0.166-6.336-3.072-6.336-6.643 0-3.674 2.976-6.65 6.65-6.65s6.65 2.976 6.65 6.65c-0.006 3.571-2.81 6.477-6.336 6.643z"></path>
<path d="M16.070 4.186c-0.006 0-0.019 0-0.026 0-2.528 0-4.589 2.048-4.602 4.576-0.006 1.229 0.467 2.387 1.331 3.264s2.016 1.357 3.245 1.363c0.032 0 0.058 0 0.090 0 1.018-0.013 1.965-0.422 2.675-1.152s1.094-1.69 1.075-2.707c-0.013-0.998-0.41-1.939-1.12-2.65-0.71-0.704-1.651-1.101-2.656-1.107-0.006 0-0.013 0-0.019 0-1.664 0-3.027 1.35-3.040 3.021-0.013 1.677 1.344 3.046 3.021 3.059 0.032 0 0.070 0 0.102 0 0.582-0.013 1.126-0.256 1.53-0.678s0.614-0.979 0.602-1.562c-0.032-1.178-1.011-2.131-2.189-2.131-0.006 0-0.006 0-0.013 0-0.749 0.006-1.35 0.614-1.344 1.363 0.006 0.742 0.608 1.344 1.35 1.344 0 0 0.006 0 0.006 0 0.070 0 0.134-0.006 0.205-0.019 0.211-0.032 0.352-0.23 0.32-0.442s-0.23-0.352-0.442-0.32c-0.032 0.006-0.058 0.006-0.090 0.006 0 0 0 0-0.006 0-0.154 0-0.301-0.058-0.41-0.166s-0.173-0.256-0.173-0.41 0.058-0.301 0.166-0.416 0.256-0.173 0.41-0.173c0.768-0.006 1.408 0.614 1.427 1.382 0.013 0.378-0.128 0.742-0.39 1.018s-0.614 0.429-0.992 0.442c-0.026 0-0.051 0-0.077 0-1.254-0.006-2.266-1.037-2.259-2.285s1.030-2.266 2.285-2.259c1.638 0.013 2.995 1.357 3.014 2.995 0.013 0.813-0.294 1.574-0.858 2.157s-1.325 0.909-2.131 0.915c-0.026 0-0.051 0-0.070 0-1.024-0.006-1.984-0.41-2.707-1.139s-1.114-1.696-1.107-2.72c0.013-2.106 1.728-3.814 3.834-3.814 0.006 0 0.013 0 0.019 0 2.477 0.013 4.493 2.035 4.493 4.512 0 2.49-2.022 4.518-4.512 4.525-0.211 0-0.384 0.173-0.384 0.384s0.173 0.384 0.384 0.384c0 0 0 0 0 0 1.414 0 2.739-0.55 3.738-1.549s1.549-2.33 1.542-3.738c0.013-2.893-2.349-5.261-5.248-5.274z"></path>
</symbol>
<symbol id="icon-umami" viewBox="0 0 32 32">
<title>umami</title>
<path d="M18.061 11.571c-1.037-0.627-2.042-1.645-1.632-2.138 1.184-1.414 1.408-3.219 0.832-3.533-0.902-0.493-1.773 2.054-2.163 2.592-1.914 2.656-1.594 2.138-5.702 4-2.496 0.87-1.658 1.741-0.608 1.581 2.317-0.352 3.885-1.184 6.029-2.118 0.922-0.403 1.101-0.058 1.491 0.243 3.008 2.317 3.322 2.63 5.229 6.989 0.262 0.595 2.093 2.816 1.651-0.678-0.224-1.702-2.624-5.427-5.126-6.938z"></path>
<path d="M16 0c-8.838 0-16 7.162-16 16s7.162 16 16 16 16-7.162 16-16-7.162-16-16-16zM22.202 25.754c-2.010 0.506-3.2-0.077-3.571-1.741-0.877-3.974-2.694-6.048-5.446-6.227-5.773-0.371-8.64-2.278-8.595-5.722 0.032-2.458 1.952-4.749 5.773-6.874 4.461-2.477 9.933-0.672 13.587 4.416 4.723 7.853 3.494 14.835-1.747 16.147z"></path>
</symbol>
<symbol id="icon-spicy" viewBox="0 0 32 32">
<title>spicy</title>
<path d="M16 0c-8.838 0-16 7.162-16 16s7.162 16 16 16 16-7.162 16-16-7.162-16-16-16zM7.802 26.726c-1.011 0.166-1.35-0.749-0.173-1.146 2.189-0.339 17.504-4.013 11.898-18.317-0.339-0.87 0.403-1.472 1.011-1.766 0 0 0 0 0 0 0-0.006-0.006-0.019-0.006-0.026 0 0-0.006-0.006 0-0.006 0 0 0 0 0 0-0.454-1.946-1.638-2.65-2.323-3.162-0.205-0.154 0.102-0.346 0.198-0.282 1.216 0.774 2.054 1.882 2.502 3.315 0.006 0.006 0.006 0.006 0.013 0.013 0.090-0.026 0.16-0.045 0.218-0.051 1.146-0.128 1.478-0.013 2.176 0.922 1.024 1.363 8.16 18.317-15.514 20.506z"></path>
</symbol>
<symbol id="icon-sour" viewBox="0 0 32 32">
<title>sour</title>
<path d="M16 0c-8.838 0-16 7.162-16 16s7.162 16 16 16 16-7.162 16-16-7.162-16-16-16zM21.517 20.32c-2.342 2.272-6.029 3.686-10.637 3.552-2.675 1.709-2.387-1.325-2.867-2.214-3.942-7.373 7.386-16.397 13.274-13.85 1.171 0.506 3.578-2.010 3.053 3.040-0.032 0.294 0.896 5.856-2.822 9.472z"></path>
<path d="M19.571 9.312c-2.33-0.282-5.6 1.6-6.829 3.014-0.48 0.557-0.666 1.050-0.557 1.466 0.045 0.173 0.198 0.288 0.371 0.288 0.032 0 0.064-0.006 0.102-0.013 0.205-0.058 0.326-0.262 0.275-0.467-0.032-0.109 0.058-0.378 0.397-0.762 1.107-1.274 4.179-2.989 6.157-2.752 0.211 0.026 0.403-0.128 0.429-0.333 0.013-0.224-0.134-0.416-0.346-0.442z"></path>
</symbol>
</defs>
</svg>
