<svg id="salty" xmlns="http://www.w3.org/2000/svg" viewBox="0 0 150 150">
  <title>Salty</title>
  <path d="M16 0c-8.838 0-16 7.162-16 16s7.162 16 16 16 16-7.162 16-16-7.162-16-16-16zM21.728 26.554l-11.322-0.25c-0.64 0-1.19-0.627-1.011-1.229l3.821-17.261c0.019-0.083 0.019-0.147 0.013-0.198-0.006-0.013-0.013-0.032-0.013-0.045 0 0 0-0.006 0-0.006v0c-0.070-0.179-0.307-0.141-0.416-0.166-0.717-0.173-0.992-1.254-0.243-1.504 0.979-0.64 5.786-0.563 7.053 0 0.87 0.192 1.088 1.888-0.224 1.754-0.16 0-0.237 0.051-0.269 0.128v0c-0.058 0.128 0.013 0.314 0.051 0.403l3.462 17.248c0.051 0.486-0.525 1.126-0.902 1.126z"></path>
  <path d="M19.098 7.776v0z"></path>
  <path d="M13.216 7.565v0 0 0z"></path>
  <path d="M18.995 7.667l-5.658-0.237c-0.064-0.006-0.115 0.051-0.115 0.122 0 0.006 0 0.006 0 0.013l5.882 0.205c-0.013-0.058-0.058-0.102-0.109-0.102z"></path>
  <path d="M13.325 7.686l5.664 0.237c0.064 0 0.109-0.058 0.109-0.122 0-0.006 0-0.019 0-0.026l-5.882-0.211c0 0 0 0.006 0 0.006 0.006 0.013 0.006 0.032 0.013 0.045 0.019 0.045 0.051 0.070 0.096 0.070z"></path>
</svg>
