<svg id="sour" xmlns="http://www.w3.org/2000/svg" viewBox="0 0 150 150">
  <title>Sour</title>
  <path d="M16 0c-8.838 0-16 7.162-16 16s7.162 16 16 16 16-7.162 16-16-7.162-16-16-16zM21.517 20.32c-2.342 2.272-6.029 3.686-10.637 3.552-2.675 1.709-2.387-1.325-2.867-2.214-3.942-7.373 7.386-16.397 13.274-13.85 1.171 0.506 3.578-2.010 3.053 3.040-0.032 0.294 0.896 5.856-2.822 9.472z"></path>
  <path d="M19.571 9.312c-2.33-0.282-5.6 1.6-6.829 3.014-0.48 0.557-0.666 1.050-0.557 1.466 0.045 0.173 0.198 0.288 0.371 0.288 0.032 0 0.064-0.006 0.102-0.013 0.205-0.058 0.326-0.262 0.275-0.467-0.032-0.109 0.058-0.378 0.397-0.762 1.107-1.274 4.179-2.989 6.157-2.752 0.211 0.026 0.403-0.128 0.429-0.333 0.013-0.224-0.134-0.416-0.346-0.442z"></path>
</svg>
