<svg id="spicy" xmlns="http://www.w3.org/2000/svg" viewBox="0 0 150 150">
  <title>Spicy</title>
  <path d="M16 0c-8.838 0-16 7.162-16 16s7.162 16 16 16 16-7.162 16-16-7.162-16-16-16zM7.802 26.726c-1.011 0.166-1.35-0.749-0.173-1.146 2.189-0.339 17.504-4.013 11.898-18.317-0.339-0.87 0.403-1.472 1.011-1.766 0 0 0 0 0 0 0-0.006-0.006-0.019-0.006-0.026 0 0-0.006-0.006 0-0.006 0 0 0 0 0 0-0.454-1.946-1.638-2.65-2.323-3.162-0.205-0.154 0.102-0.346 0.198-0.282 1.216 0.774 2.054 1.882 2.502 3.315 0.006 0.006 0.006 0.006 0.013 0.013 0.090-0.026 0.16-0.045 0.218-0.051 1.146-0.128 1.478-0.013 2.176 0.922 1.024 1.363 8.16 18.317-15.514 20.506z"></path>
</svg>
