<svg id="sweet" xmlns="http://www.w3.org/2000/svg" viewBox="0 0 150 150">
  <title>Sweet</title>
  <path d="M16 0c-8.838 0-16 7.162-16 16s7.162 16 16 16 16-7.162 16-16-7.162-16-16-16zM16.314 16.096v13.402h-0.627v-13.402c-3.526-0.166-6.336-3.072-6.336-6.643 0-3.674 2.976-6.65 6.65-6.65s6.65 2.976 6.65 6.65c-0.006 3.571-2.81 6.477-6.336 6.643z"></path>
  <path d="M16.070 4.186c-0.006 0-0.019 0-0.026 0-2.528 0-4.589 2.048-4.602 4.576-0.006 1.229 0.467 2.387 1.331 3.264s2.016 1.357 3.245 1.363c0.032 0 0.058 0 0.090 0 1.018-0.013 1.965-0.422 2.675-1.152s1.094-1.69 1.075-2.707c-0.013-0.998-0.41-1.939-1.12-2.65-0.71-0.704-1.651-1.101-2.656-1.107-0.006 0-0.013 0-0.019 0-1.664 0-3.027 1.35-3.040 3.021-0.013 1.677 1.344 3.046 3.021 3.059 0.032 0 0.070 0 0.102 0 0.582-0.013 1.126-0.256 1.53-0.678s0.614-0.979 0.602-1.562c-0.032-1.178-1.011-2.131-2.189-2.131-0.006 0-0.006 0-0.013 0-0.749 0.006-1.35 0.614-1.344 1.363 0.006 0.742 0.608 1.344 1.35 1.344 0 0 0.006 0 0.006 0 0.070 0 0.134-0.006 0.205-0.019 0.211-0.032 0.352-0.23 0.32-0.442s-0.23-0.352-0.442-0.32c-0.032 0.006-0.058 0.006-0.090 0.006 0 0 0 0-0.006 0-0.154 0-0.301-0.058-0.41-0.166s-0.173-0.256-0.173-0.41 0.058-0.301 0.166-0.416 0.256-0.173 0.41-0.173c0.768-0.006 1.408 0.614 1.427 1.382 0.013 0.378-0.128 0.742-0.39 1.018s-0.614 0.429-0.992 0.442c-0.026 0-0.051 0-0.077 0-1.254-0.006-2.266-1.037-2.259-2.285s1.030-2.266 2.285-2.259c1.638 0.013 2.995 1.357 3.014 2.995 0.013 0.813-0.294 1.574-0.858 2.157s-1.325 0.909-2.131 0.915c-0.026 0-0.051 0-0.070 0-1.024-0.006-1.984-0.41-2.707-1.139s-1.114-1.696-1.107-2.72c0.013-2.106 1.728-3.814 3.834-3.814 0.006 0 0.013 0 0.019 0 2.477 0.013 4.493 2.035 4.493 4.512 0 2.49-2.022 4.518-4.512 4.525-0.211 0-0.384 0.173-0.384 0.384s0.173 0.384 0.384 0.384c0 0 0 0 0 0 1.414 0 2.739-0.55 3.738-1.549s1.549-2.33 1.542-3.738c0.013-2.893-2.349-5.261-5.248-5.274z"></path>
</svg>
