<svg id="umami" xmlns="http://www.w3.org/2000/svg" viewBox="0 0 150 150">
  <title>Umami</title>
  <path d="M18.061 11.571c-1.037-0.627-2.042-1.645-1.632-2.138 1.184-1.414 1.408-3.219 0.832-3.533-0.902-0.493-1.773 2.054-2.163 2.592-1.914 2.656-1.594 2.138-5.702 4-2.496 0.87-1.658 1.741-0.608 1.581 2.317-0.352 3.885-1.184 6.029-2.118 0.922-0.403 1.101-0.058 1.491 0.243 3.008 2.317 3.322 2.63 5.229 6.989 0.262 0.595 2.093 2.816 1.651-0.678-0.224-1.702-2.624-5.427-5.126-6.938z"></path>
  <path d="M16 0c-8.838 0-16 7.162-16 16s7.162 16 16 16 16-7.162 16-16-7.162-16-16-16zM22.202 25.754c-2.010 0.506-3.2-0.077-3.571-1.741-0.877-3.974-2.694-6.048-5.446-6.227-5.773-0.371-8.64-2.278-8.595-5.722 0.032-2.458 1.952-4.749 5.773-6.874 4.461-2.477 9.933-0.672 13.587 4.416 4.723 7.853 3.494 14.835-1.747 16.147z"></path>
</svg>
